<svg xmlns="http://www.w3.org/2000/svg" viewBox="0 0 24 24"><path fill="#10b981" d="M12 2.163c3.204 0 3.584.012 4.85.07 1.366.062 2.633.35 3.608 1.325.975.975 1.263 2.242 1.325 3.608.058 1.266.07 1.646.07 4.834s-.012 3.568-.07 4.834c-.062 1.366-.35 2.633-1.325 3.608-.975.975-2.242 1.263-3.608 1.325-1.266.058-1.646.07-4.834.07s-3.517-.012-4.757-.069c-1.021-.047-1.578-.216-1.946-.363-.49.19-.84.417-1.206.783-.366.366-.593.716-.783 1.206-.147.368-.316.925-.363 1.946-.057 1.24-.069 1.605-.069 4.757s.012 3.517.069 4.757c.047 1.021.216 1.578.363 1.946.19.49.417.84.783 1.206.366.366.716.593 1.206.783.368.147.925.316 1.946.363 1.24.057 1.605.069 4.757.069s3.517-.012 4.757-.069c1.021-.047 1.578-.216 1.946-.363.49-.19.84-.417 1.206-.783.366-.366.593-.716.783-1.206.147-.368.316-.925.363-1.946.057-1.24.069-1.605.069-4.757s-.012-3.517-.069-4.757c-.047-1.021-.216-1.578-.363-1.946-.19-.49-.417-.84-.783-1.206-.366-.366-.716-.593-1.206-.783-.368-.147-.925-.316-1.946-.363-1.24-.057-1.605-.069-4.757-.069zm0 3.649a6.566 6.566 0 1 1 0 13.132 6.566 6.566 0 0 1 0-13.132zm0 1.622a4.944 4.944 0 1 0 0 9.888 4.944 4.944 0 0 0 0-9.888zm6.406-.999a1.536 1.536 0 1 1 0 3.072 1.536 1.536 0 0 1 0-3.072z"/></svg>