<svg width="360" height="64" viewBox="0 0 360 64" xmlns="http://www.w3.org/2000/svg" role="img" aria-label="direito.love">
  <defs>
    <linearGradient id="g" x1="0" y1="0" x2="1" y2="1">
      <stop offset="0%" stop-color="#22C55E"/>
      <stop offset="100%" stop-color="#16A34A"/>
    </linearGradient>
  </defs>
  <rect rx="12" width="360" height="64" fill="url(#g)" opacity="0.08"/>
  <g transform="translate(16,8)">
    <path d="M32 10c-5 0-9 4-9 9 0 8 9 13 9 13s9-5 9-13c0-5-4-9-9-9zm0-8c9 0 17 8 17 17 0 12-12 20-17 23-5-3-17-11-17-23 0-9 8-17 17-17z" fill="#16A34A"/>
  </g>
  <text x="72" y="42" font-family="Inter, Arial, sans-serif" font-size="28" font-weight="700" fill="#0F172A">direito.love</text>
</svg>
