<svg xmlns="http://www.w3.org/2000/svg" xmlns:xlink="http://www.w3.org/1999/xlink" width="1080" zoomAndPan="magnify" viewBox="0 0 810 809.999993" height="1080" preserveAspectRatio="xMidYMid meet" version="1.0"><defs><clipPath id="b06c7bb042"><path d="M 45.121094 99 L 765 99 L 765 729 L 45.121094 729 Z M 45.121094 99 " clip-rule="nonzero"/></clipPath><clipPath id="835caeeedd"><path d="M 73.65625 199.769531 C 15.296875 295.914062 56.410156 389.496094 108.078125 439.164062 L 410.179688 729 L 705.902344 440.199219 C 753.957031 386.769531 772.375 330.09375 762.144531 266.988281 C 748.015625 179.691406 676.074219 111.960938 587.207031 102.289062 C 532.703125 96.421875 480.054688 111.84375 438.960938 145.992188 C 427.898438 155.179688 418.015625 165.453125 409.398438 176.617188 C 399.175781 163.90625 387.1875 152.277344 373.632812 141.972656 C 326.378906 106.058594 266.226562 91.800781 208.449219 102.890625 C 153.722656 113.460938 104.605469 148.761719 73.65625 199.769531 Z M 73.65625 199.769531 " clip-rule="nonzero"/></clipPath><clipPath id="737c75811e"><path d="M 0.121094 0.121094 L 720 0.121094 L 720 630 L 0.121094 630 Z M 0.121094 0.121094 " clip-rule="nonzero"/></clipPath><clipPath id="2d6d01e270"><path d="M 28.65625 100.769531 C -29.703125 196.914062 11.410156 290.496094 63.078125 340.164062 L 365.179688 630 L 660.902344 341.199219 C 708.957031 287.769531 727.375 231.09375 717.144531 167.988281 C 703.015625 80.691406 631.074219 12.960938 542.207031 3.289062 C 487.703125 -2.578125 435.054688 12.84375 393.960938 46.992188 C 382.898438 56.179688 373.015625 66.453125 364.398438 77.617188 C 354.175781 64.90625 342.1875 53.277344 328.632812 42.972656 C 281.378906 7.058594 221.226562 -7.199219 163.449219 3.890625 C 108.722656 14.460938 59.605469 49.761719 28.65625 100.769531 Z M 28.65625 100.769531 " clip-rule="nonzero"/></clipPath><clipPath id="d1372b3461"><rect x="0" width="720" y="0" height="630"/></clipPath></defs><g clip-path="url(#b06c7bb042)"><g clip-path="url(#835caeeedd)"><g transform="matrix(1, 0, 0, 1, 45, 99)"><g clip-path="url(#d1372b3461)"><g clip-path="url(#737c75811e)"><g clip-path="url(#2d6d01e270)"><path fill="#00bf63" d="M 0.121094 0.210938 L 720.933594 0.210938 L 720.933594 630 L 0.121094 630 Z M 0.121094 0.210938 " fill-opacity="1" fill-rule="nonzero"/></g></g></g></g></g></g></svg>